<svg width="33" height="33" viewBox="0 0 33 33" fill="none" xmlns="http://www.w3.org/2000/svg">
<path d="M23.7917 1.91666H9.20832C5.18125 1.91666 1.91666 5.18125 1.91666 9.20832V23.7917C1.91666 27.8187 5.18125 31.0833 9.20832 31.0833H23.7917C27.8187 31.0833 31.0833 27.8187 31.0833 23.7917V9.20832C31.0833 5.18125 27.8187 1.91666 23.7917 1.91666Z" stroke="#929292" stroke-width="1.2" stroke-linecap="round" stroke-linejoin="round"/>
<path d="M22.3333 15.5813C22.5133 16.795 22.306 18.0345 21.7409 19.1236C21.1758 20.2127 20.2817 21.0958 19.1857 21.6475C18.0897 22.1991 16.8477 22.3911 15.6364 22.1962C14.425 22.0012 13.3059 21.4293 12.4383 20.5617C11.5707 19.6941 10.9988 18.575 10.8039 17.3637C10.6089 16.1523 10.8009 14.9103 11.3526 13.8143C11.9042 12.7183 12.7874 11.8242 13.8764 11.2591C14.9655 10.694 16.2051 10.4867 17.4188 10.6667C18.6568 10.8503 19.8029 11.4271 20.6879 12.3121C21.5729 13.1971 22.1498 14.3433 22.3333 15.5813Z" stroke="#929292" stroke-width="1.2" stroke-linecap="round" stroke-linejoin="round"/>
<path d="M24.5208 8.47916H24.5354" stroke="#929292" stroke-width="1.2" stroke-linecap="round" stroke-linejoin="round"/>
</svg>
