<svg width="33" height="33" viewBox="0 0 33 33" fill="none" xmlns="http://www.w3.org/2000/svg">
<path d="M21.9728 11.5815C24.1448 11.5815 26.2278 12.4856 27.7636 14.095C29.2994 15.7044 30.1622 17.8871 30.1622 20.1631V30.1749H24.7026V20.1631C24.7026 19.4044 24.415 18.6768 23.9031 18.1404C23.3912 17.6039 22.6968 17.3026 21.9728 17.3026C21.2488 17.3026 20.5545 17.6039 20.0426 18.1404C19.5306 18.6768 19.243 19.4044 19.243 20.1631V30.1749H13.7834V20.1631C13.7834 17.8871 14.6462 15.7044 16.182 14.095C17.7179 12.4856 19.8009 11.5815 21.9728 11.5815V11.5815Z" stroke="#929292" stroke-width="1.2" stroke-linecap="round" stroke-linejoin="round"/>
<path d="M8.32378 13.0118H2.86417V30.175H8.32378V13.0118Z" stroke="#929292" stroke-width="1.2" stroke-linecap="round" stroke-linejoin="round"/>
<path d="M5.59397 8.72105C7.1016 8.72105 8.32378 7.44035 8.32378 5.86052C8.32378 4.2807 7.1016 3 5.59397 3C4.08634 3 2.86417 4.2807 2.86417 5.86052C2.86417 7.44035 4.08634 8.72105 5.59397 8.72105Z" stroke="#929292" stroke-width="1.2" stroke-linecap="round" stroke-linejoin="round"/>
</svg>
